<svg xmlns="http://www.w3.org/2000/svg" xmlns:xlink="http://www.w3.org/1999/xlink" version="1.1" x="0px" y="0px" viewBox="0 0 164 205" enable-background="new 0 0 164 164" xml:space="preserve"><path fill-rule="evenodd" clip-rule="evenodd" d="M6.412,156.415h112.617V164H6.412V156.415L6.412,156.415z M23.221,100.348  l81.311-81.309l34.018,34.017l-81.311,81.312l-13.69-13.69l44.804-44.805l-6.638-6.638l-44.805,44.804L23.221,100.348  L23.221,100.348z M10.054,136.263l-3.642,15.283l15.158-3.768L10.054,136.263L10.054,136.263z M17.169,106.401l-5.55,23.293  l16.466,16.466l23.102-5.742l0.184-0.184l-34.018-34.018L17.169,106.401L17.169,106.401z M111.169,12.401l34.019,34.017l9.493-9.493  c3.45-3.45,3.449-9.095,0-12.544L133.206,2.908c-3.449-3.45-9.094-3.45-12.544,0L111.169,12.401z"/><text x="0" y="179" fill="#000000" font-size="5px" font-weight="bold" font-family="'Helvetica Neue', Helvetica, Arial-Unicode, Arial, Sans-serif">Created by Aleksandr Vector</text><text x="0" y="184" fill="#000000" font-size="5px" font-weight="bold" font-family="'Helvetica Neue', Helvetica, Arial-Unicode, Arial, Sans-serif">from the Noun Project</text></svg>