<svg xmlns="http://www.w3.org/2000/svg" xmlns:xlink="http://www.w3.org/1999/xlink" version="1.1" baseProfile="basic" x="0px" y="0px" viewBox="0 0 100 125" xml:space="preserve"><g><path fill="#000000" d="M15.106,47.186c1.045,2.008,3.957,1.495,5.598,0.05c-0.058,3.935-0.815,9.449,0.329,13.602   c-2.118-0.232-4.056-2.869-1.928-5.176c0.86-0.934-0.53-2.33-1.393-1.394c-1.662,1.801-2.285,4.104-0.812,6.231   c1.035,1.493,3.036,2.448,4.868,2.273c0.452,0.887,1.052,1.655,1.82,2.277c-0.8,0.85-1.597,1.7-2.374,2.569   c-0.784,0.876,0.358,2.144,1.204,1.558c-1.813,2.78,1.429,5.579,4.562,5.339c1.374-0.105,2.727-0.705,3.723-1.629   c-0.392,5.686-0.58,11.412-0.804,17.098c-0.05,1.271,1.921,1.268,1.971,0c0.235-5.984,0.677-11.96,0.875-17.948   c0.101-3.032,1.877-8.007,0.085-10.784c-1.161-1.801-3.208-2.486-3.699-4.813c-0.438-2.07-0.425-5.305,1.812-6.432   c2.625-1.322,4.693-0.095,6.046-3.083c2.337-5.167-4.048-21.437,4.621-22.057c5.899-0.422,11.831-0.254,17.734,0.042   c2.094,0.105,3.213,0.176,3.854,2.392c0.719,2.488,1.587,4.916,1.723,7.525c0.012,0.222,0.085,0.402,0.192,0.546   c-0.214,0.275-0.287,0.652-0.058,1.045c3.395,5.807,6.695,11.667,10.262,17.37c-2.16-0.094-4.811-0.42-6.168,0.918   c-1.578,1.557,0.834,4.441,2.031,6.388c-3.287,0.178-6.578-0.03-9.871,0.108c-1.011,0.043-1.301,1.284-0.496,1.836   c3.064,2.107,6.555,3.391,9.798,5.171c-1.521,2.049-3.424,3.799-2.276,6.634c1.297,3.201,3.393,6.172,5.074,9.216   c-2.604,2.077-5.683,3.574-9.039,2.193c-2.539-1.045-4.703-2.777-6.856-4.439c-1.858-1.437-3.669-2.931-5.521-4.369   c-0.951-0.738-2.093-1.794-3.378-1.794c-2.789,0-5.126,5.089-6.375,6.973c-2.99,4.513-6.951,8.171-9.142,13.215   c-0.5,1.152,1.195,2.156,1.701,0.993c2.188-5.035,6.2-8.679,9.141-13.213c1.206-1.858,2.383-4.226,4.147-5.611   c1.348-1.057,3.865,2.018,4.865,2.827c3.295,2.667,7.391,6.515,11.623,7.56c4.211,1.042,7.599-0.695,10.783-3.401   c0.346-0.292,0.349-0.824,0.154-1.192c-1.372-2.611-2.793-5.266-4.303-7.797c-1.117-1.871-1.789-3.412-0.082-5.317   c0.664-0.742,1.228-1.469,1.759-2.309c0.288-0.455,0.096-1.081-0.354-1.348c-2.486-1.472-5.16-2.566-7.708-3.903   c2.624,0.013,5.248,0.078,7.868-0.171c0.626-0.06,1.135-0.585,0.949-1.246c-0.181-0.65-3.033-5.7-2.625-5.757   c2.009-0.282,4.049,0.028,6.054-0.221c0.688-0.085,1.294-0.786,0.851-1.481c-3.925-6.154-7.482-12.525-11.164-18.825   c-0.004-0.007-0.01-0.013-0.015-0.021c0.103-0.148,0.162-0.34,0.149-0.576c-0.145-2.76-0.943-5.431-1.793-8.048   c-0.271-0.832-0.598-1.926-1.25-2.639c0.119-0.044,0.236-0.114,0.348-0.218c3.242-3.058,7.083-8.138,4.096-12.545   c-0.984-1.452-2.523-2.324-4.257-2.841c-1.761-2.36-4.584-3.762-7.716-4.426c-1.24-0.263-1.767,1.636-0.524,1.9   c1.788,0.378,3.435,0.983,4.778,1.915c-1.361-0.108-2.704-0.094-3.885-0.045c-0.889-1.885-2.891-3.113-5.327-3.493   c-2.28-0.356-7.183-0.03-7.015,3.301c0.064,1.264,2.035,1.27,1.97,0c-0.087-1.72,5.897-2.169,8.104,0.315   C50,8.251,45.53,8.632,41.155,9.18c-4.695,0.589-9.842,1.491-13.733,4.4c-0.172,0.129-0.328,0.267-0.492,0.4   c-5.877,0.025-11.915,3.246-8.715,9.523c0.578,1.133,2.276,0.135,1.702-0.994c-1.938-3.801,1.115-5.879,4.829-6.454   c-3.78,4.304-4.682,9.814-4.691,15.562c-1.134,0.937-1.482,2.236-0.218,3.789c0.103,0.126,0.215,0.241,0.332,0.351   c0.055,1.074,0.124,2.146,0.193,3.214c-0.743,0.051-1.449,0.184-2.092,0.458C15.649,40.558,13.709,44.5,15.106,47.186z    M37.343,15.347c-0.151-1.245-2.124-1.26-1.97,0c0.234,1.92,0.49,3.674,1.049,5.343c-1.796-1.802-3.984-3.319-6.435-3.479   c-2.225-0.145-4.313,0.801-5.609,2.445c0.78-1.331,1.778-2.542,3.048-3.591c0.067-0.056,0.139-0.102,0.207-0.156   c1.988,0.092,3.854,0.583,4.965,1.447c0.989,0.771,2.394-0.613,1.394-1.392c-1.044-0.812-2.431-1.372-3.96-1.686   c6.438-3.644,14.717-3.392,21.867-4.077c1.072-0.103,2.186-0.221,3.314-0.31c0.027,0.384,0,0.798-0.105,1.253   c-0.285,1.236,1.614,1.761,1.9,0.523c0.154-0.671,0.199-1.3,0.161-1.892c1.933-0.066,3.865,0.036,5.669,0.534   c0.492,0.824,0.846,1.779,1.025,2.89c0.203,1.252,2.102,0.719,1.9-0.523c-0.066-0.405-0.16-0.789-0.268-1.164   c3.732,2.759,0.53,7.978-2.692,11.016c-0.272,0.256-0.34,0.556-0.282,0.832c-0.379-0.125-0.769-0.209-1.162-0.271   c1.828-1.94,2.977-4.769,2.594-7.389c-0.535-3.666-4.44-4.005-7.266-2.562c-2.789,1.426-3.072,4.506-0.384,6.266   c2.384,1.56,4.85,0.431,4.206-2.57c-0.266-1.242-2.165-0.715-1.899,0.523c0.369,1.722-1.501,0.452-1.989-0.316   c-1.172-1.841,2.008-2.792,3.383-2.772c4.245,0.06,1.049,6.75-0.723,8.106c-0.195,0.15-0.312,0.338-0.371,0.537   c-0.148-0.005-0.297-0.01-0.445-0.016c-1.226-0.047-2.453-0.095-3.68-0.138c0.359-0.308,0.741-0.593,1.113-0.872   c0.429-0.321,0.648-0.844,0.354-1.348c-0.248-0.423-0.918-0.676-1.348-0.353c-1.007,0.755-1.951,1.509-2.729,2.505   c-0.661-0.016-1.322-0.04-1.983-0.047c2.428-0.949,4.395-3.607,4.2-6.256c-0.229-3.101-3.039-4.653-5.984-4.264   c-5.643,0.746-1.246,9.602,1.934,5.25c0.75-1.028-0.959-2.009-1.701-0.994c-0.494,0.676-0.985-0.287-1.018-0.95   c-0.076-1.537,1.479-1.54,2.669-1.261c3.976,0.928,1.652,6.007-1.241,6.778c-0.067-0.013-0.139-0.021-0.216-0.021   c-2.436,0.003-6.603,0.431-8.372-1.666c-0.805-0.952-1.135-4.521,0.572-4.806c0.781-0.13,2.201,0.97,1.174,1.572   c-1.096,0.641-0.105,2.344,0.993,1.701c4.421-2.591-3.544-8.732-5.048-2.486c-1.233,5.131,2.234,6.849,6.205,7.403   c-1.514,0.017-3.072,0.116-4.461,0.512C38.137,20.727,37.704,18.306,37.343,15.347z M30.374,23.184   c-0.241,0.997-2.78,2.407-3.072,0.444c-0.127-0.857,1.112-1.213,1.701-1.354c1.412-0.336,2.965-0.524,4.279,0.266   c3.569,2.146-2.048,5.288-4.278,5.196c-4.272-0.176-5.481-6.413-1.496-8.164c1.867-0.819,3.724-0.309,5.374,0.748   c-1.685-0.483-3.494-0.318-5.253,0.341c-2.348,0.882-3.077,3.358-1.162,5.143c1.923,1.792,5.256,0.174,5.807-2.096   C32.573,22.473,30.674,21.949,30.374,23.184z M25.342,66.059c0.888,0.35,1.917,0.57,3.136,0.615   c0.083,0.004,0.16-0.002,0.231-0.016c0.505,0.331,0.938,0.771,1.225,1.355c0.669,1.356,0.366,3.005-0.991,3.825   c-0.857,0.517-1.815,0.882-2.832,0.651c-0.703-0.158-2.134-0.526-2.322-1.394c-0.223-1.028,1.032-1.525,1.845-1.56   c0.405-0.018,1.879-0.104,1.678,0.488c-0.411,1.205,1.492,1.72,1.899,0.523c1.032-3.036-3.76-3.674-5.802-2.399   C24.05,67.449,24.69,66.748,25.342,66.059z M22.026,36.768c2.002,0.594,4.552,0.291,6.286,0.051   c3.097-0.427,5.312-1.675,6.652-4.276c0.024,2.062,0.252,4.133,0.404,5.868c0.117,1.324,1.155,8.685-1.058,8.829   c-1.767,0.114-3.446,0.418-4.912,1.457c-2.624,1.861-3.051,6.177-1.958,8.972c0.307,0.781,0.609,1.767,1.216,2.37   c0.723,0.719,2.397,1.625,2.585,2.576c0.258,1.307,0.22,2.623,0.091,3.94c-0.95-1.393-2.465-2.207-4.143-2.47   c0.372-0.398,0.743-0.797,1.108-1.201c0.851-0.939-0.539-2.337-1.393-1.394c-0.639,0.705-1.287,1.399-1.937,2.091   c-0.511-0.382-0.934-0.849-1.28-1.386c4.156-2.314,1.778-10.098,1.396-13.798c-0.13-1.25-2.101-1.264-1.97,0   c0.188,1.831,0.538,3.643,0.738,5.473c0.186,1.703,0.711,4.288-0.359,5.803c-0.197,0.28-0.418,0.502-0.652,0.679   c-1.413-4.464-0.055-11.263-0.194-15.025c-0.052-1.382-0.166-2.867-0.292-4.406c1.02,0.041,2.064,0.119,3.093,0.14   c-0.025,0.026-0.051,0.048-0.075,0.074c-0.857,0.933,0.531,2.33,1.394,1.393c1.931-2.102,6.35-0.272,4.211,2.538   c-0.65,0.856-1.795,0.904-2.553,0.141c-0.717-0.722-0.363-0.951,0.533-1.112c1.249-0.225,0.719-2.124-0.523-1.899   c-2.138,0.385-3.173,2.416-1.637,4.155c1.357,1.538,3.941,1.959,5.406,0.302c1.679-1.9,1.865-4.706-0.415-6.228   c-0.33-0.22-0.679-0.392-1.038-0.527c0.721-0.498,1.354-1.191,1.86-2.165c0.585-1.125-1.115-2.122-1.701-0.995   c-1.691,3.254-5.339,2.422-8.715,2.24C22.137,38.249,22.078,37.511,22.026,36.768z M30.051,31.504   c-1.524-1.758-5.487-1.873-8.221-0.861c0.061-2.956,0.414-5.842,1.354-8.43c-0.016,0.08-0.038,0.158-0.052,0.239   c-1.176,6.812,7.362,9.264,11.625,4.939c0.953-0.968,1.754-2.443,1.654-3.802c0.222,0.269,0.434,0.535,0.628,0.791   c0.061,0.079,0.128,0.143,0.199,0.198c-0.534,0.483-0.989,1.076-1.325,1.832c-0.477,1.08-0.736,2.321-0.86,3.628   c-0.495-0.208-1.172-0.069-1.396,0.588c-1.448,4.224-7.077,5.418-11.101,4.184c-0.271-0.083-0.479-0.175-0.66-0.27   c-0.027-0.561-0.047-1.122-0.06-1.683c0.639-0.499,1.659-0.888,2.403-0.937c1.394-0.093,3.411-0.185,4.417,0.977   C29.491,33.858,30.877,32.458,30.051,31.504z M17.105,43.43c0.669-1.602,1.755-2.363,3.383-2.504   c0.04,0.626,0.076,1.25,0.108,1.869c-0.117-0.095-0.24-0.189-0.377-0.282c-1.055-0.717-2.039,0.991-0.995,1.7   c1.804,1.225-0.863,2.725-2.13,2.192C16.104,45.989,16.827,44.093,17.105,43.43z"/><path fill="#000000" d="M62.844,36.468c1.27,0,1.27,1.97,0,1.97h-1.207c-0.002,0.74-0.041,1.454-0.351,2.139   c-0.302,0.668-1.384,0.619-1.701,0c-0.269-0.523-0.606-1.008-0.876-1.532c-0.1-0.193-0.123-0.403-0.103-0.606h-5.394   c-1.271,0-1.271-1.97,0-1.97H62.844z"/></g><text x="0" y="115" fill="#000000" font-size="5px" font-weight="bold" font-family="'Helvetica Neue', Helvetica, Arial-Unicode, Arial, Sans-serif">Created by Humberto Cesar Pornaro</text><text x="0" y="120" fill="#000000" font-size="5px" font-weight="bold" font-family="'Helvetica Neue', Helvetica, Arial-Unicode, Arial, Sans-serif">from the Noun Project</text></svg>