<svg width="809" height="601" viewBox="0 0 809 601" xmlns="http://www.w3.org/2000/svg" xmlns:xlink="http://www.w3.org/1999/xlink"><svg viewBox="-1 -1 166 207" width="166" height="207" id="blog" y="393.31" xmlns="http://www.w3.org/2000/svg"><path fill-rule="evenodd" clip-rule="evenodd" d="M6.412 156.415h112.617V164H6.412v-7.585zm16.809-56.067l81.311-81.309 34.018 34.017-81.311 81.312-13.69-13.69 44.804-44.805-6.638-6.638-44.805 44.804-13.689-13.691zm-13.167 35.915l-3.642 15.283 15.158-3.768-11.516-11.515zm7.115-29.862l-5.55 23.293 16.466 16.466 23.102-5.742.184-.184-34.018-34.018-.184.185zm94-94l34.019 34.017 9.493-9.493c3.45-3.45 3.449-9.095 0-12.544L133.206 2.908c-3.449-3.45-9.094-3.45-12.544 0l-9.493 9.493z"/><text y="179" font-size="5" font-weight="bold" font-family="'Helvetica Neue', Helvetica, Arial-Unicode, Arial, Sans-serif">Created by Aleksandr Vector</text><text y="184" font-size="5" font-weight="bold" font-family="'Helvetica Neue', Helvetica, Arial-Unicode, Arial, Sans-serif">from the Noun Project</text></svg><svg id="clear-view-escapes" data-name="Layer 1" width="144.4" height="61.53" viewBox="-1 -1 144.4 61.53" x="500.53" y="308" xmlns="http://www.w3.org/2000/svg"><defs><style>.bcls-1{fill:#fff}</style></defs><title>clear-view-escapes</title><path class="bcls-1" d="M19.5 27.52v4.75H5.93v5.51h12.45v4.39H5.93v6.3h13.85v4.75H.28v-25.7H19.5zm7.86 21.07a3 3 0 0 0 .88 1 3.78 3.78 0 0 0 1.24.56 5.84 5.84 0 0 0 1.46.18 5.46 5.46 0 0 0 1.13-.13 3.86 3.86 0 0 0 1.08-.4 2.47 2.47 0 0 0 .85-.75 1.89 1.89 0 0 0 .32-1.13 1.91 1.91 0 0 0-1.53-1.73 30.59 30.59 0 0 0-4.3-1.19q-1.12-.25-2.18-.59a7.38 7.38 0 0 1-1.89-.9 4.35 4.35 0 0 1-1.33-1.4 4 4 0 0 1-.5-2.07 5.6 5.6 0 0 1 .7-3 5.16 5.16 0 0 1 1.85-1.82 8.13 8.13 0 0 1 2.59-.94 15.92 15.92 0 0 1 3-.27 14.79 14.79 0 0 1 2.93.29 7.77 7.77 0 0 1 2.54 1 5.83 5.83 0 0 1 1.8 1.88 6.11 6.11 0 0 1 .89 2.82H34a2.24 2.24 0 0 0-1.12-2 5.1 5.1 0 0 0-2.37-.52 8.77 8.77 0 0 0-.94.05 3.15 3.15 0 0 0-.92.23 1.91 1.91 0 0 0-.7.52 1.38 1.38 0 0 0-.29.92 1.4 1.4 0 0 0 .5 1.12 3.88 3.88 0 0 0 1.31.7 16.38 16.38 0 0 0 1.85.49l2.18.49a21.57 21.57 0 0 1 2.18.61 7.2 7.2 0 0 1 1.89 1 4.63 4.63 0 0 1 1.33 1.48 4.34 4.34 0 0 1 .5 2.18 5.65 5.65 0 0 1-2.66 5.07A7.9 7.9 0 0 1 34 53.37a15.9 15.9 0 0 1-3.11.31 15.36 15.36 0 0 1-3.17-.32A8.35 8.35 0 0 1 25 52.27a6.17 6.17 0 0 1-2-2 6.25 6.25 0 0 1-.85-3.11H27a2.8 2.8 0 0 0 .36 1.43zM51.27 38a3.59 3.59 0 0 0-2.05.56A4.45 4.45 0 0 0 47.87 40a6.23 6.23 0 0 0-.74 1.94 10.54 10.54 0 0 0-.21 2.06 10.11 10.11 0 0 0 .21 2 6.32 6.32 0 0 0 .7 1.89 4 4 0 0 0 1.31 1.39 3.61 3.61 0 0 0 2 .54 3.75 3.75 0 0 0 2.83-1 4.86 4.86 0 0 0 1.24-2.75h4.93a8.43 8.43 0 0 1-2.88 5.65 9.29 9.29 0 0 1-6.08 1.94 10.16 10.16 0 0 1-3.83-.7 8.49 8.49 0 0 1-3-2 8.92 8.92 0 0 1-1.91-3 10.42 10.42 0 0 1-.68-3.83 12.4 12.4 0 0 1 .63-4 9 9 0 0 1 1.9-3.13 8.49 8.49 0 0 1 3-2.1 10.15 10.15 0 0 1 4-.76 11.63 11.63 0 0 1 3.19.43 8.49 8.49 0 0 1 2.73 1.31 6.79 6.79 0 0 1 2.83 5.31h-5A3.43 3.43 0 0 0 51.27 38zm11.55 2.33a5.93 5.93 0 0 1 .9-3 6.13 6.13 0 0 1 2-1.91 8.83 8.83 0 0 1 2.75-1 15.71 15.71 0 0 1 3.08-.31 20.85 20.85 0 0 1 2.84.2 8.72 8.72 0 0 1 2.63.77A5.18 5.18 0 0 1 79 36.67a4.47 4.47 0 0 1 .76 2.72v9.68a19.49 19.49 0 0 0 .14 2.41 4.34 4.34 0 0 0 .5 1.73h-5.19a6.77 6.77 0 0 1-.21-.88 7.44 7.44 0 0 1-.13-.92A6.64 6.64 0 0 1 72 53.17a11.55 11.55 0 0 1-3.38.5 9.1 9.1 0 0 1-2.48-.32 5.68 5.68 0 0 1-2-1 4.69 4.69 0 0 1-1.35-1.73 5.84 5.84 0 0 1-.49-2.48 5.42 5.42 0 0 1 .56-2.61 4.66 4.66 0 0 1 1.44-1.64 6.44 6.44 0 0 1 2-.92 21.75 21.75 0 0 1 2.29-.49q1.15-.18 2.27-.29a13.74 13.74 0 0 0 2-.32 3.43 3.43 0 0 0 1.37-.63 1.38 1.38 0 0 0 .4-1.24 2.72 2.72 0 0 0-.27-1.31 2 2 0 0 0-.72-.69 2.86 2.86 0 0 0-1-.36 8.61 8.61 0 0 0-1.28-.09 3.88 3.88 0 0 0-2.37.65 2.89 2.89 0 0 0-1 2.16h-5.17zm11.8 3.78a2.28 2.28 0 0 1-.81.45 8.28 8.28 0 0 1-1 .27c-.41.07-.81.17-1.2.17s-.82.11-1.22.18a9.24 9.24 0 0 0-1.13.29 3.34 3.34 0 0 0-1 .49 2.3 2.3 0 0 0-.67.77 2.49 2.49 0 0 0-.25 1.19 2.4 2.4 0 0 0 .25 1.15 1.93 1.93 0 0 0 .68.74 2.9 2.9 0 0 0 1 .38 6.48 6.48 0 0 0 1.19.11 4.51 4.51 0 0 0 2.34-.5 3.36 3.36 0 0 0 1.22-1.21 3.87 3.87 0 0 0 .49-1.42 10.06 10.06 0 0 0 .12-1.17v-1.89zm13.94-9.51V37h.07A5.62 5.62 0 0 1 91 34.78a7.29 7.29 0 0 1 3.17-.68 8.07 8.07 0 0 1 3.78.83 7.82 7.82 0 0 1 2.63 2.2 9.31 9.31 0 0 1 1.55 3.19 14.19 14.19 0 0 1 .5 3.8 12.82 12.82 0 0 1-.5 3.6 9.18 9.18 0 0 1-1.53 3.06 7.58 7.58 0 0 1-2.6 2.11 7.69 7.69 0 0 1-3.58.79 7.23 7.23 0 0 1-3.18-.7 6 6 0 0 1-2.39-2.07h-.04v8.82H83.7V34.6h4.86zm6.64 14.76A4.09 4.09 0 0 0 96.56 48a5.43 5.43 0 0 0 .74-1.89 11.19 11.19 0 0 0 .22-2.2 10.32 10.32 0 0 0-.23-2.2 5.86 5.86 0 0 0-.77-1.92 4.33 4.33 0 0 0-1.39-1.37 3.87 3.87 0 0 0-2.08-.42 3.94 3.94 0 0 0-2.11.52 4.22 4.22 0 0 0-1.37 1.35 5.6 5.6 0 0 0-.74 1.91 11.3 11.3 0 0 0-.2 2.22 10.31 10.31 0 0 0 .23 2.2 5.69 5.69 0 0 0 .76 1.8 4.36 4.36 0 0 0 5.58 1.36zm15.95-.61a5.24 5.24 0 0 0 6 .34 3.21 3.21 0 0 0 1.37-1.64H123a8.54 8.54 0 0 1-3.31 4.79 9.75 9.75 0 0 1-5.4 1.44 10.6 10.6 0 0 1-4-.7 8.22 8.22 0 0 1-3-2 9 9 0 0 1-1.89-3.09 11.34 11.34 0 0 1-.67-4 10.84 10.84 0 0 1 .68-3.89 9 9 0 0 1 4.95-5.18 9.63 9.63 0 0 1 3.87-.76 8.84 8.84 0 0 1 4.14.92 8.26 8.26 0 0 1 2.9 2.46A10.14 10.14 0 0 1 123 41a13.14 13.14 0 0 1 .36 4.14H109.9a5.16 5.16 0 0 0 1.25 3.61zm5.78-9.75a3.59 3.59 0 0 0-2.79-1 4.45 4.45 0 0 0-2 .41 3.89 3.89 0 0 0-1.3 1 3.77 3.77 0 0 0-.68 1.3 5.83 5.83 0 0 0-.23 1.22h8.31a5.91 5.91 0 0 0-1.31-2.93zm13.71 9.59a3 3 0 0 0 .88 1 3.78 3.78 0 0 0 1.24.56 5.83 5.83 0 0 0 1.46.18 5.46 5.46 0 0 0 1.13-.13 3.86 3.86 0 0 0 1.08-.4 2.47 2.47 0 0 0 .81-.72 1.89 1.89 0 0 0 .32-1.13 1.91 1.91 0 0 0-1.56-1.76 30.55 30.55 0 0 0-4.22-1.19q-1.11-.25-2.18-.59a7.39 7.39 0 0 1-1.89-.9 4.36 4.36 0 0 1-1.33-1.4 4 4 0 0 1-.5-2.07 5.6 5.6 0 0 1 .7-3 5.18 5.18 0 0 1 1.85-1.82 8.13 8.13 0 0 1 2.59-.94 15.91 15.91 0 0 1 3-.27 14.79 14.79 0 0 1 2.93.29 7.77 7.77 0 0 1 2.54 1 5.84 5.84 0 0 1 1.85 1.82 6.11 6.11 0 0 1 .88 2.86h-4.86a2.24 2.24 0 0 0-1.12-2 5.1 5.1 0 0 0-2.37-.52 8.77 8.77 0 0 0-.94.05 3.15 3.15 0 0 0-.92.23 1.9 1.9 0 0 0-.7.52 1.38 1.38 0 0 0-.29.92 1.4 1.4 0 0 0 .5 1.12 3.87 3.87 0 0 0 1.31.7 16.33 16.33 0 0 0 1.85.49l2.1.51a21.57 21.57 0 0 1 2.18.61 7.18 7.18 0 0 1 1.89 1 4.63 4.63 0 0 1 1.33 1.48 4.33 4.33 0 0 1 .5 2.18 5.65 5.65 0 0 1-2.68 5.04 7.89 7.89 0 0 1-2.72 1.06 15.9 15.9 0 0 1-3.11.31 15.35 15.35 0 0 1-3.17-.32 8.35 8.35 0 0 1-2.75-1.08 6.18 6.18 0 0 1-2-2 6.25 6.25 0 0 1-.85-3.11h4.86a2.8 2.8 0 0 0 .38 1.42zm-107-42.3a6.36 6.36 0 0 0-.55-1.43 4 4 0 0 0-.9-1.12A4 4 0 0 0 20.9 3a5.11 5.11 0 0 0-1.71-.26 5 5 0 0 0-2.46.58A4.84 4.84 0 0 0 15 4.85a6.93 6.93 0 0 0-1 2.19 10.16 10.16 0 0 0 0 5 6.92 6.92 0 0 0 1 2.19 4.83 4.83 0 0 0 1.69 1.54 5 5 0 0 0 2.46.57A4.44 4.44 0 0 0 21 16a4.12 4.12 0 0 0 1.38-1 4.71 4.71 0 0 0 .9-1.49 7.13 7.13 0 0 0 .43-1.83h3.05a8.48 8.48 0 0 1-.69 2.93 7.17 7.17 0 0 1-1.59 2.29 7 7 0 0 1-2.35 1.49 8.14 8.14 0 0 1-3 .53 8.43 8.43 0 0 1-3.59-.74 7.88 7.88 0 0 1-2.69-2 9 9 0 0 1-1.69-3 11 11 0 0 1-.59-3.63 11 11 0 0 1 .59-3.6 9 9 0 0 1 1.69-3 8 8 0 0 1 2.69-2 8.29 8.29 0 0 1 3.65-.76A9.46 9.46 0 0 1 22 .6a7.31 7.31 0 0 1 2.34 1.2A6.23 6.23 0 0 1 26 3.72a6.66 6.66 0 0 1 .78 2.58h-3.14zM29.31.62h2.85v17.85h-2.85V.62zm8.18 12.12a5 5 0 0 0 .21 1.45 3.57 3.57 0 0 0 .64 1.23 3.06 3.06 0 0 0 1.08.84 3.54 3.54 0 0 0 1.55.31A3.42 3.42 0 0 0 43 16a3.17 3.17 0 0 0 1.14-1.61h2.7a5.36 5.36 0 0 1-2.1 3.26 5.71 5.71 0 0 1-1.74.85 7 7 0 0 1-2 .29 6.85 6.85 0 0 1-2.7-.5 5.58 5.58 0 0 1-2-1.4 5.93 5.93 0 0 1-1.3-2.12 8.74 8.74 0 0 1-.36-2.77 7.79 7.79 0 0 1 .44-2.61 6.68 6.68 0 0 1 1.25-2.18 5.86 5.86 0 0 1 4.56-2 5.8 5.8 0 0 1 2.74.64 6 6 0 0 1 2 1.69 6.84 6.84 0 0 1 1.17 2.39 7.42 7.42 0 0 1 .2 2.81h-9.5zm6.65-1.88a4.61 4.61 0 0 0-.29-1.3 3.47 3.47 0 0 0-.65-1.09 3.23 3.23 0 0 0-1-.75 3 3 0 0 0-1.31-.29 3.42 3.42 0 0 0-1.36.26 3.11 3.11 0 0 0-1.05.73 3.59 3.59 0 0 0-.7 1.09 3.78 3.78 0 0 0-.29 1.35h6.65zM60 15.59a1.51 1.51 0 0 0 .14.75.58.58 0 0 0 .54.23H61a1.85 1.85 0 0 0 .4 0v2l-.4.04-.49.11-.5.08h-.43a2.75 2.75 0 0 1-1.45-.35 1.74 1.74 0 0 1-.75-1.23 5 5 0 0 1-2.09 1.2 8.22 8.22 0 0 1-2.39.38 5.86 5.86 0 0 1-1.68-.24 4.38 4.38 0 0 1-1.41-.7 3.35 3.35 0 0 1-1-1.18 3.62 3.62 0 0 1-.35-1.68 3.84 3.84 0 0 1 .44-2 3.24 3.24 0 0 1 1.15-1.18 5.21 5.21 0 0 1 1.6-.61q.89-.19 1.79-.29a14.67 14.67 0 0 1 1.48-.21 6.86 6.86 0 0 0 1.24-.21 1.9 1.9 0 0 0 .84-.37 1.27 1.27 0 0 0 .31-.94 1.46 1.46 0 0 0-.26-.9 1.77 1.77 0 0 0-.65-.54 2.82 2.82 0 0 0-.86-.25 6.94 6.94 0 0 0-.9-.06 3.58 3.58 0 0 0-2 .5 2 2 0 0 0-.87 1.55h-2.83a4.29 4.29 0 0 1 .6-2.08 4.14 4.14 0 0 1 1.34-1.33 5.48 5.48 0 0 1 1.84-.7 10.94 10.94 0 0 1 2.1-.2 8.85 8.85 0 0 1 1.88.2 5.34 5.34 0 0 1 1.65.62 3.61 3.61 0 0 1 1.19 1.16A3.19 3.19 0 0 1 60 8.94v6.65zM57.14 12a3.45 3.45 0 0 1-1.6.51q-1 .09-1.9.26a6.12 6.12 0 0 0-.87.21 2.63 2.63 0 0 0-.75.38 1.65 1.65 0 0 0-.51.63 2.14 2.14 0 0 0-.19.94 1.19 1.19 0 0 0 .27.8 2 2 0 0 0 .66.51 3.08 3.08 0 0 0 .85.26 5.3 5.3 0 0 0 .84.07 4.6 4.6 0 0 0 1-.12A3.4 3.4 0 0 0 56 16a2.73 2.73 0 0 0 .81-.76 1.93 1.93 0 0 0 .33-1.14V12zm5.92-6.46h2.68V8h.05a2.88 2.88 0 0 1 .49-1 4.73 4.73 0 0 1 .88-.91 4.4 4.4 0 0 1 1.14-.66 3.41 3.41 0 0 1 1.28-.25 6.21 6.21 0 0 1 .69 0h.39V8L70 7.93a5.06 5.06 0 0 0-.61 0 3.28 3.28 0 0 0-1.36.29 3.13 3.13 0 0 0-1.09.78 4.16 4.16 0 0 0-.75 1.39 6 6 0 0 0-.27 1.9v6.15h-2.86V5.54zM77.19.62h3.25l4.48 14.13H85L89.54.62h3.17l-6.1 17.85h-3.47zm17.23 0h2.85v2.7h-2.85V.62zm0 4.93h2.85v12.92h-2.85V5.54zm8.17 7.19a5 5 0 0 0 .21 1.45 3.57 3.57 0 0 0 .64 1.23 3.06 3.06 0 0 0 1.08.84 3.54 3.54 0 0 0 1.55.31 3.42 3.42 0 0 0 2-.54 3.18 3.18 0 0 0 1.14-1.61h2.7a5.36 5.36 0 0 1-2.1 3.26 5.71 5.71 0 0 1-1.74.85 7 7 0 0 1-2 .29 6.85 6.85 0 0 1-2.7-.5 5.58 5.58 0 0 1-2-1.4 5.93 5.93 0 0 1-1.22-2.15 8.73 8.73 0 0 1-.41-2.77 7.77 7.77 0 0 1 .44-2.61 6.69 6.69 0 0 1 1.25-2.18 5.86 5.86 0 0 1 4.56-2 5.79 5.79 0 0 1 2.74.64 6 6 0 0 1 2 1.69 6.85 6.85 0 0 1 1.16 2.41 7.42 7.42 0 0 1 .19 2.81h-9.5zm6.65-1.88a4.6 4.6 0 0 0-.29-1.3 3.48 3.48 0 0 0-.65-1.09 3.22 3.22 0 0 0-1-.75 3 3 0 0 0-1.3-.28 3.43 3.43 0 0 0-1.36.26 3.12 3.12 0 0 0-1 .73 3.6 3.6 0 0 0-.7 1.09 3.8 3.8 0 0 0-.29 1.35h6.65zm3.86-5.32h3l2.53 9.65 2.42-9.65H124l2.33 9.65L129 5.54h2.9l-4 12.93h-2.93l-2.4-9.6-2.37 9.6h-3z" transform="translate(-.28 -.19)"/></svg><svg id="comment" data-name="Layer 1" width="66" height="66" viewBox="-1 -1 66 66" x="392" y="393.31" xmlns="http://www.w3.org/2000/svg"><defs><style>.ccls-1{fill:#2f5572}</style></defs><title>comment</title><path class="ccls-1" d="M.72.08A.67.67 0 0 0 0 .8v46.48a.72.72 0 0 0 .72.72H48l16 16V.72a.67.67 0 0 0-.72-.72H.8z"/></svg><svg baseProfile="basic" viewBox="-1 -1 102 127" width="102" height="127" id="face" x="166" y="393.31" xmlns="http://www.w3.org/2000/svg"><path d="M15.106 47.186c1.045 2.008 3.957 1.495 5.598.05-.058 3.935-.815 9.449.329 13.602-2.118-.232-4.056-2.869-1.928-5.176.86-.934-.53-2.33-1.393-1.394-1.662 1.801-2.285 4.104-.812 6.231 1.035 1.493 3.036 2.448 4.868 2.273a6.947 6.947 0 0 0 1.82 2.277c-.8.85-1.597 1.7-2.374 2.569-.784.876.358 2.144 1.204 1.558-1.813 2.78 1.429 5.579 4.562 5.339a6.273 6.273 0 0 0 3.723-1.629c-.392 5.686-.58 11.412-.804 17.098-.05 1.271 1.921 1.268 1.971 0 .235-5.984.677-11.96.875-17.948.101-3.032 1.877-8.007.085-10.784-1.161-1.801-3.208-2.486-3.699-4.813-.438-2.07-.425-5.305 1.812-6.432 2.625-1.322 4.693-.095 6.046-3.083 2.337-5.167-4.048-21.437 4.621-22.057 5.899-.422 11.831-.254 17.734.042 2.094.105 3.213.176 3.854 2.392.719 2.488 1.587 4.916 1.723 7.525a.986.986 0 0 0 .192.546c-.214.275-.287.652-.058 1.045 3.395 5.807 6.695 11.667 10.262 17.37-2.16-.094-4.811-.42-6.168.918-1.578 1.557.834 4.441 2.031 6.388-3.287.178-6.578-.03-9.871.108-1.011.043-1.301 1.284-.496 1.836 3.064 2.107 6.555 3.391 9.798 5.171-1.521 2.049-3.424 3.799-2.276 6.634 1.297 3.201 3.393 6.172 5.074 9.216-2.604 2.077-5.683 3.574-9.039 2.193-2.539-1.045-4.703-2.777-6.856-4.439-1.858-1.437-3.669-2.931-5.521-4.369-.951-.738-2.093-1.794-3.378-1.794-2.789 0-5.126 5.089-6.375 6.973-2.99 4.513-6.951 8.171-9.142 13.215-.5 1.152 1.195 2.156 1.701.993 2.188-5.035 6.2-8.679 9.141-13.213 1.206-1.858 2.383-4.226 4.147-5.611 1.348-1.057 3.865 2.018 4.865 2.827 3.295 2.667 7.391 6.515 11.623 7.56 4.211 1.042 7.599-.695 10.783-3.401.346-.292.349-.824.154-1.192-1.372-2.611-2.793-5.266-4.303-7.797-1.117-1.871-1.789-3.412-.082-5.317a17.033 17.033 0 0 0 1.759-2.309c.288-.455.096-1.081-.354-1.348-2.486-1.472-5.16-2.566-7.708-3.903 2.624.013 5.248.078 7.868-.171.626-.06 1.135-.585.949-1.246-.181-.65-3.033-5.7-2.625-5.757 2.009-.282 4.049.028 6.054-.221.688-.085 1.294-.786.851-1.481-3.925-6.154-7.482-12.525-11.164-18.825l-.015-.021a.9.9 0 0 0 .149-.576c-.145-2.76-.943-5.431-1.793-8.048-.271-.832-.598-1.926-1.25-2.639.119-.044.236-.114.348-.218 3.242-3.058 7.083-8.138 4.096-12.545-.984-1.452-2.523-2.324-4.257-2.841-1.761-2.36-4.584-3.762-7.716-4.426-1.24-.263-1.767 1.636-.524 1.9 1.788.378 3.435.983 4.778 1.915-1.361-.108-2.704-.094-3.885-.045-.889-1.885-2.891-3.113-5.327-3.493-2.28-.356-7.183-.03-7.015 3.301.064 1.264 2.035 1.27 1.97 0-.087-1.72 5.897-2.169 8.104.315-4.42.247-8.89.628-13.265 1.176-4.695.589-9.842 1.491-13.733 4.4-.172.129-.328.267-.492.4-5.877.025-11.915 3.246-8.715 9.523.578 1.133 2.276.135 1.702-.994-1.938-3.801 1.115-5.879 4.829-6.454-3.78 4.304-4.682 9.814-4.691 15.562-1.134.937-1.482 2.236-.218 3.789.103.126.215.241.332.351.055 1.074.124 2.146.193 3.214-.743.051-1.449.184-2.092.458-2.621 1.129-4.561 5.071-3.164 7.757zm22.237-31.839c-.151-1.245-2.124-1.26-1.97 0 .234 1.92.49 3.674 1.049 5.343-1.796-1.802-3.984-3.319-6.435-3.479-2.225-.145-4.313.801-5.609 2.445a13.4 13.4 0 0 1 3.048-3.591c.067-.056.139-.102.207-.156 1.988.092 3.854.583 4.965 1.447.989.771 2.394-.613 1.394-1.392-1.044-.812-2.431-1.372-3.96-1.686 6.438-3.644 14.717-3.392 21.867-4.077 1.072-.103 2.186-.221 3.314-.31.027.384 0 .798-.105 1.253-.285 1.236 1.614 1.761 1.9.523.154-.671.199-1.3.161-1.892 1.933-.066 3.865.036 5.669.534.492.824.846 1.779 1.025 2.89.203 1.252 2.102.719 1.9-.523a9.986 9.986 0 0 0-.268-1.164c3.732 2.759.53 7.978-2.692 11.016-.272.256-.34.556-.282.832a7.366 7.366 0 0 0-1.162-.271c1.828-1.94 2.977-4.769 2.594-7.389-.535-3.666-4.44-4.005-7.266-2.562-2.789 1.426-3.072 4.506-.384 6.266 2.384 1.56 4.85.431 4.206-2.57-.266-1.242-2.165-.715-1.899.523.369 1.722-1.501.452-1.989-.316-1.172-1.841 2.008-2.792 3.383-2.772 4.245.06 1.049 6.75-.723 8.106a1.04 1.04 0 0 0-.371.537l-.445-.016c-1.226-.047-2.453-.095-3.68-.138.359-.308.741-.593 1.113-.872.429-.321.648-.844.354-1.348-.248-.423-.918-.676-1.348-.353-1.007.755-1.951 1.509-2.729 2.505-.661-.016-1.322-.04-1.983-.047 2.428-.949 4.395-3.607 4.2-6.256-.229-3.101-3.039-4.653-5.984-4.264-5.643.746-1.246 9.602 1.934 5.25.75-1.028-.959-2.009-1.701-.994-.494.676-.985-.287-1.018-.95-.076-1.537 1.479-1.54 2.669-1.261 3.976.928 1.652 6.007-1.241 6.778a1.13 1.13 0 0 0-.216-.021c-2.436.003-6.603.431-8.372-1.666-.805-.952-1.135-4.521.572-4.806.781-.13 2.201.97 1.174 1.572-1.096.641-.105 2.344.993 1.701 4.421-2.591-3.544-8.732-5.048-2.486-1.233 5.131 2.234 6.849 6.205 7.403-1.514.017-3.072.116-4.461.512-1.761-2.428-2.194-4.849-2.555-7.808zm-6.969 7.837c-.241.997-2.78 2.407-3.072.444-.127-.857 1.112-1.213 1.701-1.354 1.412-.336 2.965-.524 4.279.266 3.569 2.146-2.048 5.288-4.278 5.196-4.272-.176-5.481-6.413-1.496-8.164 1.867-.819 3.724-.309 5.374.748-1.685-.483-3.494-.318-5.253.341-2.348.882-3.077 3.358-1.162 5.143 1.923 1.792 5.256.174 5.807-2.096.299-1.235-1.6-1.759-1.9-.524zm-5.032 42.875c.888.35 1.917.57 3.136.615a.954.954 0 0 0 .231-.016c.505.331.938.771 1.225 1.355.669 1.356.366 3.005-.991 3.825-.857.517-1.815.882-2.832.651-.703-.158-2.134-.526-2.322-1.394-.223-1.028 1.032-1.525 1.845-1.56.405-.018 1.879-.104 1.678.488-.411 1.205 1.492 1.72 1.899.523 1.032-3.036-3.76-3.674-5.802-2.399.641-.698 1.281-1.399 1.933-2.088zm-3.316-29.291c2.002.594 4.552.291 6.286.051 3.097-.427 5.312-1.675 6.652-4.276.024 2.062.252 4.133.404 5.868.117 1.324 1.155 8.685-1.058 8.829-1.767.114-3.446.418-4.912 1.457-2.624 1.861-3.051 6.177-1.958 8.972.307.781.609 1.767 1.216 2.37.723.719 2.397 1.625 2.585 2.576.258 1.307.22 2.623.091 3.94-.95-1.393-2.465-2.207-4.143-2.47.372-.398.743-.797 1.108-1.201.851-.939-.539-2.337-1.393-1.394-.639.705-1.287 1.399-1.937 2.091a5.284 5.284 0 0 1-1.28-1.386c4.156-2.314 1.778-10.098 1.396-13.798-.13-1.25-2.101-1.264-1.97 0 .188 1.831.538 3.643.738 5.473.186 1.703.711 4.288-.359 5.803-.197.28-.418.502-.652.679-1.413-4.464-.055-11.263-.194-15.025-.052-1.382-.166-2.867-.292-4.406 1.02.041 2.064.119 3.093.14-.025.026-.051.048-.075.074-.857.933.531 2.33 1.394 1.393 1.931-2.102 6.35-.272 4.211 2.538-.65.856-1.795.904-2.553.141-.717-.722-.363-.951.533-1.112 1.249-.225.719-2.124-.523-1.899-2.138.385-3.173 2.416-1.637 4.155 1.357 1.538 3.941 1.959 5.406.302 1.679-1.9 1.865-4.706-.415-6.228a5.096 5.096 0 0 0-1.038-.527c.721-.498 1.354-1.191 1.86-2.165.585-1.125-1.115-2.122-1.701-.995-1.691 3.254-5.339 2.422-8.715 2.24-.057-.729-.116-1.467-.168-2.21zm8.025-5.264c-1.524-1.758-5.487-1.873-8.221-.861.061-2.956.414-5.842 1.354-8.43-.016.08-.038.158-.052.239-1.176 6.812 7.362 9.264 11.625 4.939.953-.968 1.754-2.443 1.654-3.802.222.269.434.535.628.791.061.079.128.143.199.198a5.372 5.372 0 0 0-1.325 1.832c-.477 1.08-.736 2.321-.86 3.628-.495-.208-1.172-.069-1.396.588-1.448 4.224-7.077 5.418-11.101 4.184a3.734 3.734 0 0 1-.66-.27 67.571 67.571 0 0 1-.06-1.683c.639-.499 1.659-.888 2.403-.937 1.394-.093 3.411-.185 4.417.977.835.961 2.221-.439 1.395-1.393zM17.105 43.43c.669-1.602 1.755-2.363 3.383-2.504.04.626.076 1.25.108 1.869a5.44 5.44 0 0 0-.377-.282c-1.055-.717-2.039.991-.995 1.7 1.804 1.225-.863 2.725-2.13 2.192-.99-.416-.267-2.312.011-2.975z"/><path d="M62.844 36.468c1.27 0 1.27 1.97 0 1.97h-1.207c-.002.74-.041 1.454-.351 2.139-.302.668-1.384.619-1.701 0-.269-.523-.606-1.008-.876-1.532a1.072 1.072 0 0 1-.103-.606h-5.394c-1.271 0-1.271-1.97 0-1.97h9.632z"/><text y="115" font-size="5" font-weight="bold" font-family="'Helvetica Neue', Helvetica, Arial-Unicode, Arial, Sans-serif">Created by Humberto Cesar Pornaro</text><text y="120" font-size="5" font-weight="bold" font-family="'Helvetica Neue', Helvetica, Arial-Unicode, Arial, Sans-serif">from the Noun Project</text></svg><svg id="facebook" data-name="Layer 1" width="23.23" height="44.01" viewBox="-1 -1 23.23 44.01" x="764.71" y="308" xmlns="http://www.w3.org/2000/svg"><defs><style>.ecls-1{fill:#fff}</style></defs><title>facebook</title><path class="ecls-1" d="M21.23.31V7H17.4a3.55 3.55 0 0 0-2.85.91 4.26 4.26 0 0 0-.74 2.72v4.77H21l-1 7.47h-6.19V42H6.27V22.85H0v-7.47h6.27V9.85q0-4.69 2.55-7.28A9 9 0 0 1 15.63 0a39.57 39.57 0 0 1 5.6.31z"/></svg><svg id="fire" data-name="Layer 1" width="58" height="66" viewBox="-1 -1 58 66" x="268" y="393.31" xmlns="http://www.w3.org/2000/svg"><defs><style>.fcls-1{fill:#d4953d}</style></defs><title>Untitled-2</title><path class="fcls-1" d="M16 0C24 16 0 24 0 40s16 24 16 24C8.16 48.16 32 40 32 24S16 0 16 0zm24 24c8 16-16 24-16 40h24c3.2 0 8-4 8-16 0-16-16-24-16-24z"/></svg><svg id="globe" data-name="Layer 1" width="66" height="66" viewBox="-1 -1 66 66" x="326" y="393.31" xmlns="http://www.w3.org/2000/svg"><defs><style>.gcls-1{fill:#d4953f}</style></defs><title>globe</title><path class="gcls-1" d="M32 0a32 32 0 1 0 32 32A32 32 0 0 0 32 0zm0 8a23.75 23.75 0 0 1 7.52 1.52c-1.68 1.6-3.6 3-3.28 4.48s5.52 1 5.52 4c0 2.16-3.36 2.8-1 5.28 2.8 2.8-5.12 7.84-5.28 11.52-.24 6.64 6.72 7.76 12.24 7.76 3.36 0 4.24 1.6 4 3.52a24.07 24.07 0 0 1-19.76 10 22.94 22.94 0 0 1-8.48-1.76c1.76-3.52-2.24-10.48-6-12.72-1.84-1.84-5.76-1.12-8-2a23.49 23.49 0 0 1-1.52-6.72 1.42 1.42 0 0 1 1.28-.72c1.52 0 3.6 3 4.72 2.72 1.4-.32-5.96-10.48-2.52-12.48 1.6-1 4.8 3.12 3.76-1.28-1-4.08 2.88-2.24 5.28-3.28 2.08-.88 3.6-3.28 1-4.72a8.55 8.55 0 0 1-1.76-1.52A23.75 23.75 0 0 1 32 8.08V8zm18.48 8.72A26.46 26.46 0 0 1 54 22.48v.24a11.78 11.78 0 0 1-1.76 1.76C50 26.72 49.68 22.8 48.72 22c-1-1-4.8.16-5.28-1-.56-1.48 4-3.4 7.04-4.28z"/></svg><svg id="instagram" data-name="Layer 1" width="44.01" height="44.01" viewBox="-1 -1 44.01 44.01" x="652" y="393.31" xmlns="http://www.w3.org/2000/svg"><defs><style>.hcls-1{fill:#fff}</style></defs><title>instagram</title><path class="hcls-1" d="M37.25 35.49V17.77h-3.69a11.77 11.77 0 0 1 .57 3.58 12.12 12.12 0 0 1-1.75 6.36 12.76 12.76 0 0 1-4.76 4.59 13.13 13.13 0 0 1-6.56 1.7 12.78 12.78 0 0 1-9.19-3.71 12 12 0 0 1-3.83-9 11.77 11.77 0 0 1 .49-3.56H4.68v17.76a1.63 1.63 0 0 0 1.6 1.67h29.3a1.63 1.63 0 0 0 1.17-.47 1.59 1.59 0 0 0 .5-1.2zm-7.77-14.57A7.75 7.75 0 0 0 27 15.14a8.28 8.28 0 0 0-6-2.4 8.25 8.25 0 0 0-5.91 2.39 7.75 7.75 0 0 0-2.47 5.78 7.75 7.75 0 0 0 2.47 5.79A8.25 8.25 0 0 0 21 29.1a8.28 8.28 0 0 0 6-2.4 7.75 7.75 0 0 0 2.48-5.78zm7.76-9.84V6.56a1.84 1.84 0 0 0-.54-1.31 1.8 1.8 0 0 0-1.31-.56h-4.78a1.8 1.8 0 0 0-1.31.56 1.84 1.84 0 0 0-.54 1.31v4.52A1.87 1.87 0 0 0 30.6 13h4.8a1.87 1.87 0 0 0 1.85-1.89zM42 5.39v31.23A5.41 5.41 0 0 1 36.62 42H5.39a5.19 5.19 0 0 1-3.8-1.59A5.19 5.19 0 0 1 0 36.62V5.39a5.19 5.19 0 0 1 1.59-3.8A5.19 5.19 0 0 1 5.39 0h31.23a5.19 5.19 0 0 1 3.8 1.59A5.19 5.19 0 0 1 42 5.39z"/></svg><svg id="mail" data-name="Layer 1" width="66" height="50" viewBox="-1 -1 66 50" x="644.93" y="308" xmlns="http://www.w3.org/2000/svg"><defs><style>.icls-1{fill:#2f5572}</style></defs><title>mail</title><path class="icls-1" d="M0 0v8l32 16L64 8V0H0zm0 16v32h64V16L32 32z"/></svg><svg id="rain" data-name="Layer 1" width="66" height="66" viewBox="-1 -1 66 66" x="458" y="393.31" xmlns="http://www.w3.org/2000/svg"><defs><style>.jcls-1{fill:#d4953f}</style></defs><title>rain</title><path class="jcls-1" d="M36 0a20.42 20.42 0 0 0-20 16A16 16 0 0 0 0 32a15.4 15.4 0 0 0 4.27 10.72A11.88 11.88 0 0 1 12 40a10.51 10.51 0 0 1 4.47 1A12 12 0 0 1 28 32a12.06 12.06 0 0 1 11.51 9A11.84 11.84 0 0 1 44 40a11.94 11.94 0 0 1 11 7.52A12.07 12.07 0 0 0 64 36c0-5.2-3.36-10.32-8-12v-4A20 20 0 0 0 36 0zm-9.27 40A4 4 0 0 0 24 44v16a4 4 0 1 0 8 0V44a4 4 0 0 0-4.71-4h-.56zm-16 8A4 4 0 0 0 8 52v8a4 4 0 1 0 8 0v-8a4 4 0 0 0-4.71-4h-.54zm32 0A4 4 0 0 0 40 52v8a4 4 0 1 0 8 0v-8a4 4 0 0 0-4.71-4h-.58z" transform="translate(-.04)"/></svg><svg width="308" height="308" viewBox="-1 -1 308 308" id="rate-star-button" x="500.53" xmlns="http://www.w3.org/2000/svg"><path d="M153 230.775l94.35 68.85-35.7-112.2 94.35-66.3H191.25L153 6.375l-38.25 114.75H0l94.35 66.3-35.7 112.2z"/></svg><svg id="star" data-name="Layer 1" width="66" height="66" viewBox="-1 -1 66 66" x="586" y="393.31" xmlns="http://www.w3.org/2000/svg"><defs><style>.lcls-1{fill:#d4953f}</style></defs><title>star</title><path class="lcls-1" d="M32 0l-8 24H0l20 16-8 24 20-16 20 16-8-24 20-16H40z"/></svg><svg viewBox="-1 -1 500.53 393.31" width="500.53" height="393.31" id="swiss-army-knife" xmlns="http://www.w3.org/2000/svg"><path d="M229.008.092l-75.003 160.442h35.843l-3.803-5.664.146-.255 11.732-1.054-6.796-9.789.07-.256 11.893-1.053-6.796-9.79.146-.255 11.732-.97-6.716-9.709.147-.415 11.73-.97-6.714-9.709.145-.416 11.812-.969-6.876-9.71.145-.255 11.894-1.13-6.878-9.709.147-.256 11.893-1.13-6.796-9.71.07-.254 11.812-1.131-6.715-9.709.146-.328 11.732-.889-6.796-9.709.255-.485 11.73-.97-6.795-9.628L228.887 0zm248.874 43.124l-69.42 118.936c14.085 3.022 26.743 9.611 36.977 18.932l47.41-81.151c11.6-19.719 4.876-45.242-14.967-56.717zM33.776 62.149c-7.953 2.486-15.316 7.169-21.198 13.754-18.062 20.133-16.445 50.792 3.398 68.854.952.702 1.798 1.483 2.75 2.022 10.275 8.203 23.013 11.687 35.358 10.195 5.219-.664 10.506 1.134 14.483 4.531 0 .106.16.07.16.07 5.178 4.64 9.436 10.179 12.46 16.02 8.616-6.835 18.758-11.869 29.693-14.645-8.616-13.255-11.562-29.458-8.414-44.661.415-2.031 1.075-4.195 1.779-6.392v-.415c1.243-9.154-1.845-18.893-9.385-25.729-1.657-1.491-3.72-2.764-5.502-3.881-10.15-5.593-23.127-4.748-32.282 2.748 3.023 1.077 6.05 2.859 8.495 5.18 10.812 9.568 11.596 26.125 1.86 36.812v.182c-3.562 3.811-9.4 4.629-13.915 2.185-3.562-1.908-6.847-4.143-9.871-6.878-17.11-15.493-20.683-40.649-9.87-59.953zm449.366 31.15c1.614.951 2.245 3.077 1.294 4.692l-34.145 58.416c-.951 1.655-2.996 2.166-4.611 1.214-1.658-.951-2.166-2.997-1.214-4.612l34.063-58.416c.95-1.656 2.997-2.246 4.61-1.29zM130.137 167.41c-40.265 0-72.817 32.718-72.817 72.818 0 40.266 32.552 72.818 72.817 72.818H392.28c40.224 0 72.898-32.552 72.898-72.818-.04-40.14-32.674-72.818-72.898-72.818H130.137zm251.626 48.302c13.546 0 24.434 11.136 24.434 24.516.03 13.546-10.888 24.434-24.434 24.434-13.546 0-24.515-10.888-24.515-24.434 0-13.421 10.969-24.516 24.515-24.516zm-250.331 16.103c4.64 0 8.334 3.731 8.334 8.413-.03 4.764-3.694 8.495-8.334 8.495s-8.496-3.69-8.496-8.495c0-4.639 3.857-8.413 8.496-8.413zm44.742 1.537h144.098v13.674H176.174v-13.674z"/><text y="328.046" font-size="5" font-weight="bold" font-family="'Helvetica Neue', Helvetica, Arial-Unicode, Arial, Sans-serif">Created by Hopkins</text><text y="333.046" font-size="5" font-weight="bold" font-family="'Helvetica Neue', Helvetica, Arial-Unicode, Arial, Sans-serif">from the Noun Project</text></svg><svg id="twitter" data-name="Layer 1" width="53.78" height="44.06" viewBox="-1 -1 53.78 44.06" x="710.93" y="308" xmlns="http://www.w3.org/2000/svg"><defs><style>.ncls-1{fill:#fff}</style></defs><title>twitter</title><path class="ncls-1" d="M51.78 5a22.23 22.23 0 0 1-5.32 5.52v1.38a30.15 30.15 0 0 1-1.25 8.53 30.81 30.81 0 0 1-3.76 8.13 32.1 32.1 0 0 1-6.06 6.92 27 27 0 0 1-8.48 4.8 31 31 0 0 1-10.62 1.8A29.47 29.47 0 0 1 0 37.29a22.71 22.71 0 0 0 2.56.13 20.78 20.78 0 0 0 13.17-4.53 10.63 10.63 0 0 1-9.92-7.36 13.45 13.45 0 0 0 2 .16 11 11 0 0 0 2.79-.36 10.44 10.44 0 0 1-6.09-3.67 10.25 10.25 0 0 1-2.41-6.75v-.13a10.52 10.52 0 0 0 4.8 1.34 10.6 10.6 0 0 1-3.45-3.78 10.34 10.34 0 0 1-1.28-5.07 10.4 10.4 0 0 1 1.45-5.33 30.08 30.08 0 0 0 9.71 7.83A29.57 29.57 0 0 0 25.53 13a11.79 11.79 0 0 1-.26-2.43 10.23 10.23 0 0 1 3-7.48 10.64 10.64 0 0 1 15 0l.21.22A20.81 20.81 0 0 0 50.33.8a10.3 10.3 0 0 1-4.67 5.85A21.14 21.14 0 0 0 51.78 5z"/></svg><svg id="wifi" data-name="Layer 1" width="62" height="66" viewBox="-1 -1 62 66" x="524" y="393.31" xmlns="http://www.w3.org/2000/svg"><defs><style>.ocls-1{fill:#d4953e}</style></defs><title>wifi</title><path class="ocls-1" d="M29.88 0A55.39 55.39 0 0 0 0 8.72l4.22 6.48a47.32 47.32 0 0 1 25.66-7.28 47.31 47.31 0 0 1 25.9 7.28L60 8.72A55.53 55.53 0 0 0 29.88 0zm0 24a31.08 31.08 0 0 0-17 5l4.22 6.72A23.09 23.09 0 0 1 29.8 32a24.17 24.17 0 0 1 13 3.76L47 29a32.37 32.37 0 0 0-17.2-5h.07zm0 24a8 8 0 1 0 8 8 8 8 0 0 0-8-8z"/></svg><svg id="youtube" data-name="Layer 1" width="36.75" height="44" viewBox="-1 -1 36.75 44" x="696.01" y="393.31" xmlns="http://www.w3.org/2000/svg"><defs><style>.pcls-1{fill:#fff}</style></defs><title>youtube</title><path class="pcls-1" d="M22.13 29.15v5q0 1.57-.91 1.57a1.5 1.5 0 0 1-1.06-.52v-7.11a1.5 1.5 0 0 1 1.06-.54q.91 0 .91 1.6zm7.92 0v1.08h-2.1v-1.06q0-1.59 1.06-1.59t1 1.59zM7.42 24h2.5v-2.14h-7.3v2.2h2.46V37.4h2.34V24zm6.75 13.4h2.09V25.82h-2.09v8.86a1.86 1.86 0 0 1-1.31 1 .48.48 0 0 1-.49-.47 6.52 6.52 0 0 1 0-.82v-8.57h-2.14V35a5.79 5.79 0 0 0 .19 1.71 1.26 1.26 0 0 0 1.36.87 3.43 3.43 0 0 0 2.39-1.43v1.25zm10.05-3.47v-4.6A8.33 8.33 0 0 0 24 27a1.63 1.63 0 0 0-1.67-1.31A2.82 2.82 0 0 0 20.16 27v-5.1h-2.08v15.5h2.09v-1.13a2.91 2.91 0 0 0 2.18 1.31A1.62 1.62 0 0 0 24 36.27a8.61 8.61 0 0 0 .22-2.35zm7.92-.24v-.3H30a11.6 11.6 0 0 1 0 1.43.9.9 0 0 1-.94.85q-1.08 0-1.08-1.61V32h4.19v-2.41a4.65 4.65 0 0 0-.66-2.72 3.2 3.2 0 0 0-5 0 4.52 4.52 0 0 0-.66 2.72v4.05a4.4 4.4 0 0 0 .66 2.72 3 3 0 0 0 2.49 1.2 2.9 2.9 0 0 0 3-2.51 10.31 10.31 0 0 0 .09-1.36zM17.89 12.3V7.38q0-1.61-1-1.61t-1 1.61v4.92q0 1.64 1 1.64t1-1.64zm16.85 17.6a40.6 40.6 0 0 1-.61 8.2 4.45 4.45 0 0 1-1.36 2.32 4.1 4.1 0 0 1-2.39 1.08 125.31 125.31 0 0 1-13 .49 125.31 125.31 0 0 1-13-.49A4.15 4.15 0 0 1 2 40.42 4.28 4.28 0 0 1 .63 38.1 39.76 39.76 0 0 1 0 29.9a40.6 40.6 0 0 1 .61-8.2A4.45 4.45 0 0 1 2 19.37a4.25 4.25 0 0 1 2.41-1.1q4.29-.47 13-.47t13 .47a4.4 4.4 0 0 1 3.75 3.42 39.76 39.76 0 0 1 .58 8.21zM11.35 0h2.39l-2.83 9.35v6.35H8.57V9.35a39.68 39.68 0 0 0-1.43-5Q6.27 2 5.61 0H8.1l1.67 6.16zM20 7.8v4.1a4.59 4.59 0 0 1-.66 2.76 2.88 2.88 0 0 1-2.49 1.19 2.9 2.9 0 0 1-2.46-1.19 4.68 4.68 0 0 1-.66-2.76V7.8a4.59 4.59 0 0 1 .66-2.74 2.9 2.9 0 0 1 2.46-1.19 2.88 2.88 0 0 1 2.49 1.19A4.59 4.59 0 0 1 20 7.8zM27.87 4v11.7h-2.13v-1.27a3.37 3.37 0 0 1-2.41 1.45A1.31 1.31 0 0 1 22 15a6 6 0 0 1-.19-1.76V4h2.13v8.6a6.14 6.14 0 0 0 0 .82.49.49 0 0 0 .47.52 1.87 1.87 0 0 0 1.31-1V4h2.16z"/></svg></svg>